<svg t="1739004279311" class="icon" viewBox="0 0 1024 1024" version="1.1" xmlns="http://www.w3.org/2000/svg" p-id="1657" width="256" height="256"><path d="M510 99.3C282.5 99.3 98 283.6 98 511s184.5 411.7 412 411.7S922 738.4 922 511 737.5 99.3 510 99.3z m0 754.8c-189.3 0-343.3-153.9-343.3-343.1 0-189.2 154-343.1 343.3-343.1S853.3 321.8 853.3 511c0 189.2-154 343.1-343.3 343.1z m0-587.1c-21.3 0-38.6 17.4-38.6 38.6v263.3c0 21.2 17.4 38.6 38.6 38.6 21.3 0 38.6-17.4 38.6-38.6V305.6c0-21.2-17.4-38.6-38.6-38.6z m0 382.7c-21.3 0-38.6 17.4-38.6 38.6v28.1c0 21.2 17.4 38.6 38.6 38.6 21.3 0 38.6-17.4 38.6-38.6v-28.1c0-21.3-17.4-38.6-38.6-38.6z" fill="#515151" p-id="1658"></path></svg>