<svg t="1739343437620" class="icon" viewBox="0 0 1024 1024" version="1.1" xmlns="http://www.w3.org/2000/svg" p-id="1433" width="128" height="128"><path d="M839.168 104.618667h-103.082667V93.866667c0-32.938667-26.794667-59.733333-59.733333-59.733334H347.648c-32.938667 0-59.733333 26.794667-59.733333 59.733334v10.752h-103.082667C139.264 104.618667 102.4 146.090667 102.4 196.949333v699.733334c0 51.029333 37.034667 92.501333 82.432 92.501333l644.266667 0.682667h0.170666c24.746667 0 47.957333-9.557333 65.365334-26.965334a91.613867 91.613867 0 0 0 27.136-65.536V196.949333c0-51.029333-37.034667-92.330667-82.602667-92.330666z m-500.053333-10.752c0-4.778667 3.754667-8.533333 8.533333-8.533334h328.874667c4.778667 0 8.533333 3.754667 8.533333 8.533334v65.365333c0 4.778667-3.754667 8.533333-8.533333 8.533333H347.648c-4.778667 0-8.533333-3.754667-8.533333-8.533333V93.866667z m531.456 803.498666c0 11.093333-4.266667 21.504-12.117334 29.184-7.850667 7.850667-18.261333 12.117333-29.184 12.117334l-644.437333-0.853334c-17.066667 0-31.232-18.944-31.232-41.301333v-699.733333c0-22.357333 14.336-41.130667 31.232-41.130667h103.082667v3.413333c0 32.938667 26.794667 59.733333 59.733333 59.733334h328.874667c32.938667 0 59.733333-26.794667 59.733333-59.733334v-3.413333h103.082667c17.066667 0 31.232 18.944 31.232 41.130667v700.586666z" fill="#707070" p-id="1434"></path><path d="M759.296 420.693333h-169.642667v-78.506666c0-14.165333-11.434667-25.6-25.6-25.6h-104.106666c-14.165333 0-25.6 11.434667-25.6 25.6v78.506666h-169.642667c-14.165333 0-25.6 11.434667-25.6 25.6v104.106667c0 14.165333 11.434667 25.6 25.6 25.6h13.482667v209.749333c0 14.165333 11.434667 25.6 25.6 25.6h416.597333c14.165333 0 25.6-11.434667 25.6-25.6V576h13.482667c14.165333 0 25.6-11.434667 25.6-25.6v-104.106667c-0.170667-14.165333-11.605333-25.6-25.770667-25.6zM694.613333 760.149333h-52.906666V706.56c0-14.165333-11.434667-25.6-25.6-25.6s-25.6 11.434667-25.6 25.6v53.589333h-52.906667v-53.76c0-14.165333-11.434667-25.6-25.6-25.6s-25.6 11.434667-25.6 25.6v53.76h-52.906667V706.56c0-14.165333-11.434667-25.6-25.6-25.6s-25.6 11.434667-25.6 25.6v53.589333h-52.906666V577.024h365.226666v183.125333zM290.304 471.893333h169.642667c14.165333 0 25.6-11.434667 25.6-25.6v-78.506666h52.906666v78.506666c0 14.165333 11.434667 25.6 25.6 25.6h169.642667v52.906667H290.304v-52.906667z" fill="#707070" p-id="1435"></path></svg>