<svg t="1739774679558" class="icon" viewBox="0 0 1093 1024" version="1.1" xmlns="http://www.w3.org/2000/svg" p-id="1645" width="128" height="128"><path d="M1092.977485 154.353318A163.987589 163.987589 0 0 0 929.297372 0H154.353523A163.987589 163.987589 0 0 0 0.000205 163.987589v758.442598a109.359223 109.359223 0 0 0 178.951456 75.639276L327.975383 874.56631h610.95626a163.987589 163.987589 0 0 0 154.353318-163.987589V163.987589z m-81.993795 556.225403a81.993794 81.993794 0 0 1-81.993794 81.993794H327.975383a81.993794 81.993794 0 0 0-52.476029 19.063557L126.78311 935.446702a27.262937 27.262937 0 0 1-44.789111-20.498449V163.987589a81.993794 81.993794 0 0 1 81.993795-81.993795h765.309578a81.993794 81.993794 0 0 1 81.993795 81.993795z" fill="#707070" p-id="1646"></path><path d="M546.591337 505.594235H327.975383a40.996897 40.996897 0 0 0 0 81.993794h218.615954a40.996897 40.996897 0 0 0 0-81.993794zM765.309784 286.97828H327.975383a40.996897 40.996897 0 0 0 0 81.993795h437.334401a40.996897 40.996897 0 0 0 0-81.993795z" fill="#707070" p-id="1647"></path></svg>