<svg t="1739004236459" class="icon" viewBox="0 0 1024 1024" version="1.1" xmlns="http://www.w3.org/2000/svg" p-id="1185" width="256" height="256"><path d="M850.23237006 47.55494108l-680.32088443 0c-34.15389708 0-61.84735357 27.69221495-61.84735357 61.84735357l0 804.01807466c0 34.15389708 27.69221495 61.84735357 61.84735357 61.84735358l680.32088443 0c34.15389708 0 61.84735357-27.6934565 61.84735358-61.84735358L912.07972364 109.40229465C912.07972364 75.24839758 884.38626714 47.55494108 850.23237006 47.55494108zM850.23237006 867.03485505c0 25.62442672-20.77723367 46.38675702-46.38675703 46.38675701L216.29824144 913.42161206c-25.63932889 0-46.38675702-20.7623303-46.38675702-46.38675701L169.91148442 155.78905168c0-25.60952335 20.74742693-46.38675702 46.38675702-46.38675703l587.54861314 0c25.6082818 0 46.38675702 20.77723367 46.38675703 46.38675703L850.23361161 867.03485505zM448.22581643 264.02191952l-185.54205951 0 0 61.84735357 185.54205951 0L448.22581643 264.02191952zM571.91928081 449.56397902L262.68375692 449.56397902l0 61.84735357 309.23552389 0L571.91928081 449.56397902zM262.68375692 696.95463363l432.92898827 0 0-61.84735357L262.68375692 635.10728127 262.68375692 696.95463363z" fill="#515151" p-id="1186"></path></svg>