<svg t="1739004268539" class="icon" viewBox="0 0 1024 1024" version="1.1" xmlns="http://www.w3.org/2000/svg" p-id="1500" width="256" height="256"><path d="M104.22044445 956.47971555a36.70016 36.70016 0 0 1 0-72.81777777h815.5591111a36.70016 36.70016 0 0 1 0 72.81777777zM775.89162667 101.30773333l82.13845333 82.13845334a58.25422222 58.25422222 0 0 1 0 82.13845333L337.23733333 784.62976a58.25422222 58.25422222 0 0 1-41.36049778 16.89372445H187.52398222a29.12711111 29.12711111 0 0 1-29.12711111-29.12711112v-111.26556444a58.25422222 58.25422222 0 0 1 16.89372444-41.36049778l518.46257778-518.46257778a58.25422222 58.25422222 0 0 1 82.13845334 0z m-544.67697778 565.64849778v61.74947556h61.74947556l503.89902222-503.89902222L735.11367111 162.47466667z" fill="#515151" p-id="1501"></path></svg>