<svg t="1739341122624" class="icon" viewBox="0 0 1024 1024" version="1.1" xmlns="http://www.w3.org/2000/svg" p-id="1763" width="128" height="128"><path d="M192 928.338c-53.017 0-96-42.965-96-95.973v-639.73c0-53.007 42.984-95.973 96-95.973h640c53.017 0 96 42.966 96 95.973v639.73c0 53.008-42.983 95.973-96 95.973z m458.666-767.676H192c-17.676 0-32 14.318-32 31.973v639.73c0 17.656 14.324 31.973 32 31.973h458.666V160.661z m181.334 0H714.666v703.675H832c17.5 0 31.713-14.031 31.996-31.443l0.004-0.53V192.636c0-17.655-14.323-31.973-32-31.973zM363.579 404.2l0.377 0.372 85.333 85.297c12.378 12.373 12.502 32.362 0.372 44.887l-0.372 0.377-85.333 85.297c-12.5 12.495-32.76 12.49-45.255-0.01-12.37-12.373-12.489-32.355-0.362-44.877l0.372-0.377 62.691-62.665-62.691-62.665c-12.375-12.37-12.503-32.351-0.38-44.878l0.37-0.377c12.37-12.374 32.351-12.502 44.878-0.38z" p-id="1764" fill="#707070"></path></svg>