<svg t="1739004320155" class="icon" viewBox="0 0 1024 1024" version="1.1" xmlns="http://www.w3.org/2000/svg" p-id="2301" width="256" height="256"><path d="M832 364.8l-147.2 0s19.19999999-64 32-179.2c6.4-57.60000001-38.4-115.2-102.4-121.6l-12.8 0c-51.2 0-83.2 32-102.4 76.79999999l-38.4 96.00000001c-32 64-57.6 102.4-76.8 115.2-25.6 12.8-121.6 12.8-127.99999999 12.8L128 364.79999999c-38.4 0-64 25.6-64 57.60000001l0 480c0 32 25.6 57.6 64 57.6l646.4 0c95.99999999 0 121.6-64 134.4-153.59999999l51.2-307.20000001c6.4-70.40000001-6.4-134.4-128-134.4z m-576 537.6L128 902.4 128 422.4l128 0 0 480z m640-409.59999999l-51.2 307.19999999c-12.8 57.60000001-12.8 102.4-76.8 102.4L320 902.4 320 422.4c44.8 0 70.40000001-6.4 89.6-19.2 32-12.8 64-64 108.8-147.19999999 25.6-64 38.4-96 44.8-102.40000001 6.4-19.2 19.2-32 44.8-32l6.4 0c32 0 44.8 32 44.8 51.2-12.8 102.4-32 166.4-32 166.4l-25.6 83.2 243.19999999 0c19.2 0 32 0 44.80000001 12.8 12.8 12.8 6.4 38.4 6.4 57.60000001z" fill="#515151" p-id="2302"></path></svg>