<svg t="1739438995402" class="icon" viewBox="0 0 1024 1024" version="1.1" xmlns="http://www.w3.org/2000/svg" p-id="1554" width="128" height="128"><path d="M513.274966 1023.988258a510.713293 510.713293 0 0 1-362.832568-149.928697A507.89733 507.89733 0 0 1 0.001707 511.994982c0-136.787537 53.417965-265.383181 150.440691-362.064578A510.713293 510.713293 0 0 1 513.274966 0.001707c73.385703 0 144.467436 15.103802 210.855897 45.226072 24.575677 11.007855 35.583533 39.850143 24.575677 64.425821-11.093188 24.490345-40.020808 35.583533-64.511152 24.490345a413.605235 413.605235 0 0 0-170.920422-36.522187c-110.931876 0-215.378505 43.007435-293.798808 121.342406a410.959936 410.959936 0 0 0-121.683736 292.860154c0 110.590548 43.1781 214.781179 121.683736 292.860154a413.349238 413.349238 0 0 0 293.798808 121.342406A414.458557 414.458557 0 0 0 792.737962 818.337626c76.031001-68.863096 123.731708-158.717916 133.971574-260.263249a48.98069 48.98069 0 0 1 53.503297-43.60476 48.98069 48.98069 0 0 1 43.690093 53.417965c-12.799832 125.523685-71.679059 237.479548-165.544492 322.555764A510.798625 510.798625 0 0 1 513.274966 1023.988258z m461.049945-843.85025a48.810026 48.810026 0 0 0-69.119093-0.170665L508.155033 575.994142 335.954628 404.30573a48.810026 48.810026 0 1 0-68.948428 69.119092l206.674619 206.247958a48.639361 48.639361 0 0 0 69.03376 0l431.439667-430.501012a48.810026 48.810026 0 0 0 0.170665-69.03376z" fill="#00B578" p-id="1555"></path></svg>