<svg t="1741676176385" class="icon" viewBox="0 0 1024 1024" version="1.1" xmlns="http://www.w3.org/2000/svg" p-id="3230" width="200" height="200"><path d="M514.279 64.175c58.892 0 115.944 11.042 171.155 33.127s103.675 54.598 145.39 97.54 74.229 91.405 97.54 145.39c23.311 53.984 33.74 111.65 31.286 172.995 2.454 90.792-22.085 173.609-73.615 248.451s-119.011 129.44-202.441 163.793c-83.43 34.354-169.315 42.942-257.653 25.765-88.338-17.177-165.02-57.665-230.047-121.465S89.765 689.289 72.588 599.725 64 423.662 98.354 340.232s89.565-150.297 165.634-200.601 159.499-75.456 250.291-75.456z m0 828.169c49.077 0 96.926-9.815 143.549-29.446 46.623-19.631 87.725-47.236 123.305-82.817 35.581-35.581 63.186-76.682 82.817-123.305 19.631-46.623 29.446-94.473 29.446-143.549 0-78.523-21.471-149.684-64.413-213.484S728.989 189.32 657.828 159.874 513.665 123.68 438.823 139.63s-139.255 50.917-193.239 104.901-88.952 118.399-104.902 193.241-9.202 147.843 20.244 219.005 76.069 128.213 139.869 171.155 134.961 64.412 213.484 64.412z m-69.935-379.117c0-19.631 6.748-36.194 20.244-49.69 13.496-13.496 29.446-20.244 47.85-20.244s34.354 6.748 47.85 20.244c13.496 13.496 20.244 29.446 20.244 47.85s-6.748 34.354-20.244 47.85c-13.496 13.496-29.446 20.244-47.85 20.244s-34.354-6.748-47.85-20.244c-13.496-13.497-20.244-28.833-20.244-46.01z" p-id="3231" fill="#707070"></path></svg>