<svg t="1739783871838" class="icon" viewBox="0 0 1024 1024" version="1.1" xmlns="http://www.w3.org/2000/svg" p-id="1675" width="128" height="128"><path d="M1023.947463 511.586791C1023.947463 229.034318 794.741172 0 511.999528 0S0.034395 229.034318 0.034395 511.586791c0 260.986995 195.58547 476.366616 448.283343 507.648597a256.360908 256.360908 0 0 0 52.245551 4.746469 165.386922 165.386922 0 0 0 16.801812-0.859868c280.316818-2.871958 506.582362-230.788447 506.582362-511.535198z m-73.191925 7.222887a500.580486 500.580486 0 0 0-9.991661-74.774081c0.464328-8.684662 0.58471-16.887798 0.343947-24.54062a439.168747 439.168747 0 0 1 9.699306 92.091814v7.222887z m-877.58081-7.222887a440.25218 440.25218 0 0 1 9.355359-90.458065c18.917086 20.275677 63.630198 19.794151 74.498923-10.490384 19.501796 11.608212 45.693361 13.757881 45.693361 36.939909 0 76.631395 2.717181 158.78314 72.349255 160.055744 1.960498 0 38.831618 13.964249 56.372916 59.468439 6.070665 15.735576 30.060969 0 56.372916 0 13.138776 0 0 22.13299 0 69.993217s102.771368 121.069349 102.771368 121.06935c-0.464328 31.557139 0.825473 57.078007 3.43947 77.388078-23.199226-0.412736-42.752614 2.648392-58.109848 7.876387C229.825396 907.590187 73.174728 727.843477 73.174728 511.586791z m546.875755 425.101313c-2.287248-11.143883-12.227316-17.197351-30.387719-12.468079 14.480169-61.704095 21.531083-96.305164 51.781223-122.513927 43.75006-37.937356 5.159205-80.122457-28.100471-75.152423-26.294749 3.903799-9.664911-32.485796-33.17369-34.515083s-54.016879-48.548121-87.706489-64.593249c-17.868047-8.478294-35.426543-31.230389-62.993896-32.245033-24.437435-0.945854-60.190728 20.636821-60.190727 4.006983 0-53.655734-5.434363-91.937037-6.552191-107.208285-0.894262-12.278908-8.031163-4.144562 25.004948-3.353483 17.971232 0.481526 9.200583-36.114437 26.982643-37.52462 17.472508-1.375788 59.107295 16.354681 69.71806 9.28657 9.854082-6.586585 72.452439 164.286292 72.452439 28.23805 0-16.131115-8.37511-44.197191 0-59.485637 33.053308-60.414293 64.00854-109.650308 61.222569-116.855998-1.564959-4.058575-33.809992-7.394861-59.623215 1.255407-8.701859 2.906352 2.768773 16.543851-9.733701 19.467401-46.862781 10.817134-88.256804-12.640053-73.776635-34.687057 14.858511-22.597319 68.651824-9.854082 73.363899-55.169101 2.717181-25.968 4.952837-56.046166 6.466204-78.385525 63.062685 9.871279 56.114956-81.842192-37.645001-91.66188 189.703976 2.218458 350.464811 124.732385 409.451724 294.762593a17.799258 17.799258 0 0 0-10.455989-4.763667c-28.358431-70.81869-97.165032-19.570585-73.828227 42.890193C717.249909 502.162642 749.271376 569.23231 790.355847 607.633995c21.634267 20.18969 42.253891 50.543014 55.667825 72.349254-14.617748 42.597838 53.827708 25.538066 87.586107-46.759596a439.478299 439.478299 0 0 1-313.576494 303.464451z m0 0" fill="#707070" p-id="1676"></path></svg>