<svg t="1739760024469" class="icon" viewBox="0 0 1024 1024" version="1.1" xmlns="http://www.w3.org/2000/svg" p-id="1644" width="128" height="128"><path d="M512 26.54814777c268.11505778 0 485.45185223 217.33679445 485.45185223 485.45185223s-217.33679445 485.45185223-485.45185223 485.45185223S26.54814777 780.11505778 26.54814777 512 243.88494222 26.54814777 512 26.54814777z m0 97.09037113a388.3614811 388.3614811 0 1 0 0 776.7229622 388.3614811 388.3614811 0 0 0 0-776.7229622z m-45.97228999 178.16082887l138.64504889 420.64403001h-95.53692445l-30.77764778-102.04197888H341.2180389l-31.45728 102.04197888H220.72888889L360.05356999 301.79934777h105.97414002z m291.51383666 0v420.64403001h-89.37168555V301.79934777h89.32313998z m-345.15626667 85.97352334H408.11330333l-49.27336221 164.56817778h102.28470443L412.38528 387.72432555z" fill="#707070" p-id="1645"></path></svg>