<svg t="1739004335114" class="icon" viewBox="0 0 1024 1024" version="1.1" xmlns="http://www.w3.org/2000/svg" p-id="2458" width="256" height="256"><path d="M230.24 329.42545437l213.51272719-202.34181843a64.10181844 64.10181844 0 0 1 87.66545437 19.98545531 62.22545437 62.22545437 0 0 1 9.68727281 33.29454469v663.49090969a63.22909125 63.22909125 0 0 1-63.62181843 62.83636312 64.27636406 64.27636406 0 0 1-33.73090875-9.55636312l-213.51272719-202.60363688H157.54181844a88.53818156 88.53818156 0 0 1-89.06181844-87.97090875V417.39636406a88.53818156 88.53818156 0 0 1 89.06181844-87.97090969z m31.15636406 69.81818157a38.57454563 38.57454563 0 0 1-20.24727281 5.71636406H157.54181844a12.65454563 12.65454563 0 0 0-12.74181844 12.56727281v189.16363594a12.65454563 12.65454563 0 0 0 12.74181844 12.56727281h83.60727281a38.57454563 38.57454563 0 0 1 20.24727281 5.71636406l203.34545438 196.05818157V203.01090875z m529.83272719 491.69454562a38.53090875 38.53090875 0 0 1-53.9781825-0.91636312 37.35272719 37.35272719 0 0 1 0.91636406-53.32363688 444.34909125 444.34909125 0 0 0 0-649.48363593 37.35272719 37.35272719 0 0 1-0.91636406-53.32363688 38.53090875 38.53090875 0 0 1 53.9781825-0.91636312 519.27272719 519.27272719 0 0 1 0 757.92m-127.54909125-150.54545438a38.53090875 38.53090875 0 0 1-54.10909125-1.22181844 37.39636406 37.39636406 0 0 1 1.48363687-53.28 234.06545438 234.06545438 0 0 0 0-347.38909125 37.39636406 37.39636406 0 0 1-1.48363687-53.45454562 38.53090875 38.53090875 0 0 1 53.9781825-1.44 308.81454562 308.81454562 0 0 1 0 456.87272812z" fill="#515151" p-id="2459"></path></svg>