<svg t="1738981791779" class="icon" viewBox="0 0 1024 1024" version="1.1" xmlns="http://www.w3.org/2000/svg" p-id="945" width="256" height="256"><path d="M512 906.03155911c-221.65731555 0-400.49777778-189.15145955-400.49777778-421.527552S290.34268445 62.97645511 512 62.97645511s400.49777778 189.15145955 400.49777778 421.527552-178.84046222 421.527552-400.49777778 421.527552z m0-72.81777778c180.52983467 0 327.68-155.713536 327.68-348.70977422 0-193.05449245-147.15016533-348.70977422-327.68-348.70977422S184.32 291.44951467 184.32 484.50400711c0 192.99623822 147.15016533 348.70977422 327.68 348.70977422zM745.59943111 839.62174578a36.40888889 36.40888889 0 0 1 52.89483378-50.04037689l104.04204089 110.04222578a36.40888889 36.40888889 0 0 1-52.89483378 50.04037688l-104.04204089-110.10048z" fill="#707070" p-id="946"></path></svg>