<svg t="1739344751118" class="icon" viewBox="0 0 1024 1024" version="1.1" xmlns="http://www.w3.org/2000/svg" p-id="1463" width="128" height="128"><path d="M439.73702429 40.4182016l148.02120476 0.19417998c45.96535523 0.08322048 83.2203173 37.31044238 83.27579762 83.30353778l0.05548032 24.13389255a392.85537906 392.85537906 0 0 1 80.94562872 45.4660335l19.80643556-11.42892431a83.41449842 83.41449842 0 0 1 113.73443414 30.51411684l74.20478236 128.07606841a83.41449842 83.41449842 0 0 1-26.04795904 111.2933046l-4.52163698 2.77401031-19.88965604 11.48440463a388.52792206 388.52792206 0 0 1-1.4702262 95.53692444l14.06423382 8.15559111a83.41449842 83.41449842 0 0 1 32.84428572 109.60115712l-2.30242873 4.32745699-69.51670557 120.39205888a83.41449842 83.41449842 0 0 1-109.60115825 32.84428573l-4.32745586-2.33016889-19.22389333-11.09604238a389.02724381 389.02724381 0 0 1-77.70003684 43.33004572l0.02774016 33.06620587a83.41449842 83.41449842 0 0 1-78.22709874 83.3590181l-5.27062016 0.16643982-148.04894378-0.19417998a83.41449842 83.41449842 0 0 1-83.27579762-83.30353778l-0.05548032-39.86253255a394.35334429 394.35334429 0 0 1-65.27246905-38.72518713l-35.45185507 20.41671794a83.41449842 83.41449842 0 0 1-113.7621743-30.51411684l-74.2047835-128.07606841a83.41449842 83.41449842 0 0 1 26.0756992-111.2933046l4.49389796-2.77401031 36.08987761-20.80508018c-2.77401031-26.3531008-2.91271111-53.0945627-0.24966144-79.78054429l-40.05671253-23.13524792a83.41449842 83.41449842 0 0 1-32.87202588-109.60115826l2.33016888-4.32745586 69.51670557-120.39206002a83.41449842 83.41449842 0 0 1 109.60115825-32.84428458l4.327457 2.33016888 34.95253334 20.1670565a388.30600078 388.30600078 0 0 1 73.5112795-45.18863189l-0.05548032-31.7346816a83.41449842 83.41449842 0 0 1 78.22709874-83.3590181L439.73702429 40.4182016z m165.88583253 322.81161045a166.57933539 166.57933539 0 0 0-227.74626873 61.02823368 166.99543666 166.99543666 0 0 0 61.11145301 227.96818886 166.57933539 166.57933539 0 0 0 227.74626873-61.02823253 166.99543666 166.99543666 0 0 0-61.11145301-227.96819001z m-155.48329301 102.69387208a83.19257714 83.19257714 0 0 1 109.43471729-32.81654557l4.327457 2.33016889 4.16101603 2.57983033a83.63641856 83.63641856 0 0 1 26.40857998 111.51522588 83.19257714 83.19257714 0 0 1-113.73443299 30.5141157 83.6086784 83.6086784 0 0 1-30.59733731-114.12279523z" fill="#707070" p-id="1464"></path></svg>