<svg t="1738923455589" class="icon" viewBox="0 0 1024 1024" version="1.1" xmlns="http://www.w3.org/2000/svg" p-id="942" width="200" height="200"><path d="M796.444444 909.340444H227.555556a170.666667 170.666667 0 0 1-170.666667-170.666666v-540.444445a56.888889 56.888889 0 0 1 56.888889-56.888889h256a28.444444 28.444444 0 0 1 28.444444 28.444445v56.888889a28.444444 28.444444 0 0 1-28.444444 28.444444H170.666667v455.111111a85.333333 85.333333 0 0 0 85.333333 85.333334h512a85.333333 85.333333 0 0 0 85.333333-85.333334v-118.072889l113.777778-106.552888v253.070222a170.666667 170.666667 0 0 1-170.666667 170.666666z m148.451556-549.546666l-222.378667 203.804444a27.363556 27.363556 0 0 1-11.832889 3.072 28.017778 28.017778 0 0 1-28.017777-27.989333v-97.991111c-190.264889 27.164444-395.320889 181.731556-395.320889 181.731555C365.994667 398.193778 566.983111 283.904 682.666667 234.894222V141.795556a28.017778 28.017778 0 0 1 51.541333-15.160889c0.085333 0.113778 0.085333-0.199111 0.142222-0.227556l211.882667 194.218667 4.636444 4.266666c-0.085333 0.455111-0.739556 0.938667-0.512 1.365334a27.534222 27.534222 0 0 1-5.461333 33.536z" fill="#ffffff" p-id="943"></path><path d="M796.444444 909.340444H227.555556a170.666667 170.666667 0 0 1-170.666667-170.666666v-540.444445a56.888889 56.888889 0 0 1 56.888889-56.888889h256a28.444444 28.444444 0 0 1 28.444444 28.444445v56.888889a28.444444 28.444444 0 0 1-28.444444 28.444444H170.666667v455.111111a85.333333 85.333333 0 0 0 85.333333 85.333334h512a85.333333 85.333333 0 0 0 85.333333-85.333334v-118.072889l113.777778-106.552888v253.070222a170.666667 170.666667 0 0 1-170.666667 170.666666z m148.451556-549.546666l-222.378667 203.804444a27.363556 27.363556 0 0 1-11.832889 3.072 28.017778 28.017778 0 0 1-28.017777-27.989333v-97.991111c-190.264889 27.164444-395.320889 181.731556-395.320889 181.731555C365.994667 398.193778 566.983111 283.904 682.666667 234.894222V141.795556a28.017778 28.017778 0 0 1 51.541333-15.160889c0.085333 0.113778 0.085333-0.199111 0.142222-0.227556l211.882667 194.218667 4.636444 4.266666c-0.085333 0.455111-0.739556 0.938667-0.512 1.365334a27.534222 27.534222 0 0 1-5.461333 33.536z" fill="#ffffff" p-id="944"></path></svg>