<svg t="1741676257427" class="icon" viewBox="0 0 1024 1024" version="1.1" xmlns="http://www.w3.org/2000/svg" p-id="1755" width="200" height="200"><path d="M512 101.32l99.1 209.97c11.94 24.83 41.03 46.54 67.48 50.46l222.63 33.78c0.95 0.15 1.75 0.33 2.4 0.51-0.55 0.91-1.45 2.13-2.9 3.6L738.96 564.11c-18.42 19.05-29.08 53.26-24.78 79.66l38.08 231.72c0.14 0.85 0.23 1.63 0.29 2.33L554.44 768.89c-14.86-8.16-31.36-9.87-42.59-9.87-11.23 0-27.74 1.71-42.6 9.88l-198.1 108.87c0.06-0.67 0.15-1.4 0.28-2.19l38-231.24c4.59-26.25-6.4-61.65-24.97-80.52L123.41 399.76c-1.5-1.54-2.44-2.81-3.01-3.76 0.61-0.17 1.36-0.33 2.24-0.47l222.4-33.75c26.91-3.94 56.14-25.77 68.04-50.86L512 101.32m-0.05-61.42c-20.95 0-39.3 13.23-50.13 36.1l-99.56 210.95c-3.71 7.82-17.14 18.05-25.36 19.25l-222.69 33.79c-24.26 3.71-41.81 17.64-48.33 38.3-6.52 20.65-0.2 42.81 17.35 60.76l161.12 164.13c6.02 6.11 11.23 22.86 9.72 31.48l-38.1 231.81c-4.11 25.27 3.21 47.13 20.25 59.86 8.82 6.61 19.05 9.92 29.78 9.92 10.03 0 20.65-2.91 31.08-8.62L496.3 818.14c3.56-1.95 9.55-2.93 15.54-2.93 5.99 0 11.98 0.98 15.54 2.93L726.5 927.63c10.43 5.75 21.01 8.61 31.06 8.61 10.81 0 21.02-3.31 29.81-9.91 17.04-12.84 24.46-34.59 20.35-59.86l-38.1-231.81c-1.4-8.62 3.81-25.36 9.72-31.48l161.43-164.13c17.55-17.85 23.86-40.01 17.35-60.76-6.52-20.65-24.16-34.59-48.43-38.3L687.01 306.2c-8.12-1.2-21.56-11.53-25.27-19.25L562.18 75.99c-10.82-22.96-29.17-36.09-50.23-36.09z" fill="#8a8a8a" p-id="1756"></path></svg>